<svg width="58" height="58" viewBox="0 0 58 58" fill="none" xmlns="http://www.w3.org/2000/svg">
<circle cx="29" cy="29" r="28.5" stroke="#B80000"/>
<path fill-rule="evenodd" clip-rule="evenodd" d="M18.6775 28.0223C18.9908 25.1826 19.1054 21.8519 19.1371 19.8655C19.1434 19.471 19.146 19.0761 19.146 18.7335C19.146 18.0714 19.2185 17.4243 19.2834 16.845C19.3711 16.0636 19.4435 15.4174 19.2989 15.1338C19.1742 14.8893 18.7006 14.9586 17.513 15.5643C17.0694 15.7905 16.1027 16.4176 15.3053 16.9348C14.8553 17.2267 14.457 17.4851 14.246 17.6127C13.264 18.2066 12.4699 18.9733 12.1531 20.0418C11.8303 21.1304 11.9876 22.5553 12.916 24.4648C13.3006 25.2557 13.754 25.9231 14.1847 26.5573C14.8523 27.5401 15.4683 28.4469 15.7388 29.6258C15.8829 30.2542 16.2329 31.333 16.6666 32.1087C16.9122 32.548 17.1612 32.8738 17.36 32.8957C17.365 32.8955 17.37 32.8954 17.3751 32.8955L17.3794 32.8955C17.8394 32.8955 18.1992 31.5187 18.4753 29.6223C18.4731 29.5758 18.4799 29.5298 18.4948 29.4867C18.5605 29.0236 18.6213 28.5315 18.6775 28.0224V28.0223Z" fill="#B80000"/>
<path fill-rule="evenodd" clip-rule="evenodd" d="M46.587 20.0418C46.2702 18.9733 45.4762 18.2066 44.4941 17.6127C44.2831 17.4851 43.8848 17.2267 43.4348 16.9348C42.6374 16.4176 41.6707 15.7905 41.2271 15.5643C40.0395 14.9586 39.5659 14.8893 39.4412 15.1338C39.2966 15.4174 39.369 16.0636 39.4567 16.845C39.5216 17.4243 39.5941 18.0714 39.5941 18.7335C39.5941 19.0761 39.5967 19.471 39.603 19.8655C39.6348 21.8519 39.7493 25.1826 40.0627 28.0223C40.1189 28.5315 40.1797 29.0236 40.2453 29.4867C40.2602 29.5298 40.267 29.5758 40.2648 29.6222C40.5409 31.5187 40.9007 32.8955 41.3607 32.8955L41.365 32.8954C41.3701 32.8954 41.3751 32.8955 41.3801 32.8957C41.5789 32.8738 41.8279 32.548 42.0735 32.1087C42.5072 31.333 42.8572 30.2542 43.0013 29.6257C43.2718 28.4469 43.8878 27.54 44.5554 26.5572C44.9861 25.9231 45.4395 25.2557 45.8241 24.4648C46.7525 22.5553 46.9098 21.1304 46.587 20.0418V20.0418Z" fill="#B80000"/>
<path fill-rule="evenodd" clip-rule="evenodd" d="M38.6871 16.4401C36.8272 14.8129 33.1092 14.0014 29.3759 14.0014V14C25.637 14 21.9125 14.8148 20.0544 16.4401C20.0388 16.5957 20.0207 16.7572 20.002 16.9242C19.9397 17.4796 19.8702 18.1001 19.8702 18.7335C19.8702 18.9779 19.8668 19.3564 19.8585 19.8769C19.8264 21.8842 19.7111 25.2467 19.396 28.1015C19.3408 28.602 19.2781 29.0881 19.207 29.5507C19.4812 30.1977 19.7667 30.8021 20.0528 31.4075C21.2517 33.9447 22.4596 36.5009 22.4596 41.0135C22.4596 41.9049 23.0148 42.6697 23.8001 43.0935C24.14 43.277 24.5213 43.3967 24.9186 43.4357C24.9335 43.4339 24.9486 43.4329 24.9639 43.4329C24.9978 43.4329 25.0305 43.4376 25.0616 43.4463C25.0758 43.4469 25.09 43.4475 25.1042 43.448C25.5694 43.4639 26.0518 43.3692 26.5123 43.1384C27.6001 42.5931 28.5751 41.2884 28.9623 38.8911C27.3699 38.6132 26.0829 36.7794 26.0829 35.5877C26.0829 33.7318 27.7264 34.2075 29.2439 34.2025C30.8451 34.1972 32.6586 33.6806 32.6586 35.5877C32.6586 36.7794 31.3715 38.6133 29.7791 38.8911C30.1662 41.2885 31.1414 42.5931 32.2292 43.1384C32.6896 43.3692 33.172 43.4639 33.6373 43.448C33.6515 43.4475 33.6657 43.4469 33.6799 43.4463C33.711 43.4376 33.7437 43.4329 33.7775 43.4329C33.7929 43.4329 33.808 43.4339 33.8228 43.4357C34.2201 43.3967 34.6015 43.277 34.9414 43.0935C35.7267 42.6697 36.2819 41.9049 36.2819 41.0135C36.2819 36.5009 37.4898 33.9447 38.6886 31.4076C38.9747 30.8021 39.2603 30.1977 39.5344 29.5507C39.4634 29.0881 39.4007 28.6021 39.3454 28.1015C39.0304 25.2467 38.915 21.8842 38.883 19.8769C38.8747 19.3564 38.8713 18.9779 38.8713 18.7335C38.8713 18.1001 38.8017 17.4796 38.7394 16.9242C38.7207 16.7572 38.7026 16.5956 38.6871 16.4401H38.6871ZM33.236 24.807C33.236 23.9259 33.7223 22.528 34.6034 22.528C35.4844 22.528 36.8823 23.2422 36.8823 24.1233C36.8823 25.0043 35.4844 25.7186 34.6034 25.7186C33.7223 25.7186 33.236 25.688 33.236 24.807ZM24.1381 22.528C25.0191 22.528 25.5054 23.9259 25.5054 24.807C25.5054 25.688 25.0191 25.7186 24.1381 25.7186C23.257 25.7186 21.8591 25.0043 21.8591 24.1233C21.8591 23.2423 23.257 22.528 24.1381 22.528Z" fill="#B80000"/>
<path fill-rule="evenodd" clip-rule="evenodd" d="M31.9072 43.7825C30.8661 43.2605 29.9181 42.1805 29.371 40.3496C28.8239 42.1805 27.8759 43.2606 26.8348 43.7825C26.3599 44.0205 25.8667 44.1424 25.3828 44.1661C25.5201 44.613 25.8989 45.0216 26.4401 45.3446C27.1834 45.7882 28.2191 46.0627 29.371 46.0627C30.5229 46.0627 31.5586 45.7882 32.3019 45.3446C32.8431 45.0216 33.2219 44.613 33.3592 44.1661C32.8753 44.1424 32.3821 44.0205 31.9072 43.7825Z" fill="#B80000"/>
</svg>
