<svg width="29" height="17" viewBox="0 0 29 17" fill="none" xmlns="http://www.w3.org/2000/svg">
<path d="M25.3045 0.418021C21.5488 0.416185 17.792 0.417103 14.0352 0.417103C10.2423 0.417103 6.44937 0.415267 2.65537 0.418021C1.01936 0.418939 0.0027358 1.27636 0.00164148 2.65429C-0.00054716 6.66323 -0.00054716 10.6713 0.00164148 14.6793C0.00164148 16.0893 1.00951 16.9403 2.68272 16.9403C10.2324 16.9422 17.7832 16.9422 25.3329 16.9403C27.0062 16.9403 28.014 16.0903 28.014 14.6802C28.0162 10.6869 28.0162 6.69445 28.014 2.70111C28.0129 1.25892 27.0171 0.418021 25.3045 0.418021ZM2.96177 1.81523H25.0583C25.0988 1.85654 25.1392 1.89693 25.1797 1.93733C25.0528 1.99516 24.9018 2.03188 24.8044 2.11358C21.5072 4.88138 18.2155 7.65468 14.9216 10.4252C14.2223 11.0137 13.7966 11.0091 13.0875 10.4197C9.68089 7.59042 6.27537 4.76296 2.86766 1.93549C2.90049 1.8951 2.93113 1.85562 2.96177 1.81523ZM1.65953 14.5443V2.8434C1.70221 2.81127 1.74489 2.77822 1.78757 2.74609C1.87183 2.85533 1.9364 2.9811 2.04364 3.07198C4.15021 4.85017 6.26224 6.62559 8.37537 8.40102C8.55046 8.5479 8.76276 8.64797 8.45963 8.89767C6.19439 10.7603 3.94885 12.6385 1.65953 14.5443ZM2.96615 15.5367C2.9377 15.5055 2.90925 15.4743 2.8808 15.4431C5.13509 13.5749 7.39048 11.7086 9.63712 9.83312C9.84285 9.66145 9.94463 9.71469 10.1099 9.8579C10.7708 10.4271 11.4406 10.9898 12.1158 11.548C13.2363 12.477 14.7848 12.4733 15.9087 11.5406C16.5828 10.9815 17.2503 10.417 17.9156 9.85056C18.0535 9.73397 18.1465 9.64125 18.3479 9.80925C20.6055 11.693 22.8718 13.5694 25.2432 15.5367H2.96615ZM26.3507 14.627C26.0453 14.3589 25.8166 14.1523 25.5792 13.9522C23.5984 12.2842 21.6155 10.618 19.6348 8.94907C19.4827 8.82055 19.2343 8.72967 19.5287 8.48732C21.7994 6.61182 24.0559 4.72532 26.3507 2.81311V14.627Z" fill="#B80000"/>
<path d="M25.3045 0.418021C21.5488 0.416185 17.792 0.417103 14.0352 0.417103C10.2423 0.417103 6.44937 0.415267 2.65537 0.418021C1.01936 0.418939 0.0027358 1.27636 0.00164148 2.65429C-0.00054716 6.66323 -0.00054716 10.6713 0.00164148 14.6793C0.00164148 16.0893 1.00951 16.9403 2.68272 16.9403C10.2324 16.9422 17.7832 16.9422 25.3329 16.9403C27.0062 16.9403 28.014 16.0903 28.014 14.6802C28.0162 10.6869 28.0162 6.69445 28.014 2.70111C28.0129 1.25892 27.0171 0.418021 25.3045 0.418021ZM2.96177 1.81523H25.0583C25.0988 1.85654 25.1392 1.89693 25.1797 1.93733C25.0528 1.99516 24.9018 2.03188 24.8044 2.11358C21.5072 4.88138 18.2155 7.65468 14.9216 10.4252C14.2223 11.0137 13.7966 11.0091 13.0875 10.4197C9.68089 7.59042 6.27537 4.76296 2.86766 1.93549C2.90049 1.8951 2.93113 1.85562 2.96177 1.81523ZM1.65953 14.5443V2.8434C1.70221 2.81127 1.74489 2.77822 1.78757 2.74609C1.87183 2.85533 1.9364 2.9811 2.04364 3.07198C4.15021 4.85017 6.26224 6.62559 8.37537 8.40102C8.55046 8.5479 8.76276 8.64797 8.45963 8.89767C6.19439 10.7603 3.94885 12.6385 1.65953 14.5443ZM2.96615 15.5367C2.9377 15.5055 2.90925 15.4743 2.8808 15.4431C5.13509 13.5749 7.39048 11.7086 9.63712 9.83312C9.84285 9.66145 9.94463 9.71469 10.1099 9.8579C10.7708 10.4271 11.4406 10.9898 12.1158 11.548C13.2363 12.477 14.7848 12.4733 15.9087 11.5406C16.5828 10.9815 17.2503 10.417 17.9156 9.85056C18.0535 9.73397 18.1465 9.64125 18.3479 9.80925C20.6055 11.693 22.8718 13.5694 25.2432 15.5367H2.96615ZM26.3507 14.627C26.0453 14.3589 25.8166 14.1523 25.5792 13.9522C23.5984 12.2842 21.6155 10.618 19.6348 8.94907C19.4827 8.82055 19.2343 8.72967 19.5287 8.48732C21.7994 6.61182 24.0559 4.72532 26.3507 2.81311V14.627Z" fill="#B80000"/>
</svg>
