<svg width="24" height="24" viewBox="0 0 24 24" fill="none" xmlns="http://www.w3.org/2000/svg">
<g clipPath="url(#clip0_220_3413)">
<path d="M5.66316 15.841L5.66317 15.841C6.39435 15.3819 7.00758 14.8899 7.54672 14.4301C7.73914 14.266 7.91669 14.111 8.08531 13.9637C8.4046 13.6849 8.69183 13.4341 8.98718 13.2028C9.83573 12.5384 10.5335 12.2144 11.5198 12.374C12.4893 12.592 13.01 13.1497 13.5449 14.0813C13.7294 14.4026 13.8989 14.7376 14.0872 15.1099C14.1899 15.313 14.2983 15.5272 14.4177 15.7562C14.7447 16.3834 15.129 17.0681 15.6359 17.7662C16.9622 19.6053 17.2382 21.0177 17.0668 21.8968C16.9066 22.7188 16.343 23.1825 15.5687 23.2418C14.7957 23.301 14.1333 22.8744 13.2203 22.1561C13.1493 22.1002 13.0765 22.0423 13.0021 21.9831C12.2048 21.3487 11.2095 20.5567 9.96014 20.3398L9.89645 20.3287H9.86393C8.65345 20.0959 7.4651 20.4479 6.50835 20.7313C6.41658 20.7585 6.32693 20.785 6.23961 20.8104C5.1217 21.1348 4.34518 21.2825 3.64989 20.9384C2.95529 20.5947 2.60945 19.9566 2.77183 19.1361C2.94582 18.2569 3.73717 17.0502 5.66316 15.841Z" stroke="#191919" strokeWidth="1.5"/>
<path d="M5.1418 8.85145L5.14205 8.85199C5.60997 9.84992 5.75473 10.8438 5.64652 11.6252C5.53713 12.4151 5.19411 12.8857 4.78407 13.0746C4.37066 13.265 3.78227 13.2215 3.10155 12.7957C2.42869 12.3747 1.7569 11.6254 1.29048 10.628C0.82358 9.6296 0.67843 8.6353 0.786103 7.85364C0.89495 7.06345 1.23721 6.5934 1.64674 6.40474C2.05996 6.21438 2.64865 6.25798 3.32998 6.68421C4.00333 7.10545 4.67544 7.8548 5.1418 8.85145Z" stroke="#191919" strokeWidth="1.5"/>
<path d="M18.7421 11.4972L18.7421 11.4972L18.7436 11.4958C19.5555 10.7435 20.4632 10.2994 21.2469 10.1611C22.0399 10.0212 22.6003 10.2024 22.9099 10.5336C23.2179 10.8631 23.3575 11.4278 23.1597 12.2007C22.9641 12.9654 22.4536 13.8321 21.6415 14.5822C20.8294 15.3322 19.9205 15.777 19.1356 15.9162C18.3411 16.0571 17.7816 15.8762 17.4737 15.5459C17.1652 15.2151 17.0256 14.6495 17.2229 13.8773C17.4181 13.1132 17.9283 12.2471 18.7421 11.4972Z" stroke="#191919" strokeWidth="1.5"/>
<path d="M10.7575 7.59917C11.2281 6.89993 11.5534 5.88365 11.5729 4.71669L10.7575 7.59917ZM10.7575 7.59917C10.2821 8.30554 9.72451 8.60876 9.22532 8.60052M10.7575 7.59917L9.22532 8.60052M9.22532 8.60052C8.72629 8.59229 8.17919 8.27082 7.72758 7.54899M9.22532 8.60052L7.72758 7.54899M7.72758 7.54899C7.28053 6.83444 6.98924 5.80781 7.00873 4.64086M7.72758 7.54899L7.00873 4.64086M7.00873 4.64086C7.02823 3.47389 7.35359 2.45761 7.8242 1.75836M7.00873 4.64086L7.8242 1.75836M7.8242 1.75836C8.29959 1.05199 8.85715 0.748771 9.35634 0.757008M7.8242 1.75836L9.35634 0.757008M9.35634 0.757008C9.85629 0.765257 10.4032 1.08603 10.8543 1.80624M9.35634 0.757008L10.8543 1.80624M10.8543 1.80624C11.301 2.51954 11.5924 3.54595 11.5729 4.71666L10.8543 1.80624Z" stroke="#191919" strokeWidth="1.5"/>
<path d="M15.0555 9.72532C14.5913 9.54672 14.1905 9.05886 14.0179 8.22759C13.8469 7.40448 13.9302 6.34149 14.3543 5.25289C14.7783 4.16436 15.4375 3.32088 16.1235 2.82487C16.8171 2.32345 17.4468 2.23027 17.9118 2.40918C18.3764 2.58793 18.7769 3.07515 18.9494 3.90543C19.1203 4.72786 19.0371 5.79094 18.6129 6.88202C18.1888 7.97248 17.5297 8.81567 16.844 9.311C16.151 9.81162 15.521 9.90446 15.0555 9.72532Z" stroke="#191919" strokeWidth="1.5"/>
</g>
<defs>
<clipPath id="clip0_220_3413">
<rect width="24" height="24" fill="white"/>
</clipPath>
</defs>
</svg>
