<svg width="28" height="20" viewBox="0 0 28 20" fill="none" xmlns="http://www.w3.org/2000/svg">
<path d="M14.8316 4.73903C14.8883 4.45454 15.246 4.26821 15.7402 4.29239C17.8239 4.5406 19.5866 5.22977 20.981 6.34708C21.9589 7.13013 22.5894 8.03052 22.8675 9.03973C22.9776 9.43801 22.7573 9.69405 22.2915 9.75024C21.8434 9.80429 21.5224 9.63217 21.3807 9.26377C21.3629 9.21754 21.3388 9.17273 21.3241 9.1265C20.9506 7.94376 20.0336 6.99286 18.6329 6.2532C17.7075 5.76389 16.6572 5.46518 15.5073 5.31369C15.033 5.2511 14.777 5.01498 14.8316 4.73903Z" fill="#B80000"/>
<path d="M25.3431 14.4356C24.2635 13.6611 23.1503 12.9065 22.0109 12.1719C20.9302 11.4749 19.6071 11.4791 18.4876 12.1591C17.8896 12.5225 17.3293 12.9151 16.7659 13.3041C16.5928 13.4243 16.4574 13.4506 16.2287 13.3638C13.357 12.27 11.1316 10.7416 9.48439 8.81351C9.32596 8.62859 9.3952 8.53187 9.604 8.40029C10.116 8.0774 10.6165 7.74527 11.0918 7.3989C12.333 6.49282 12.3351 5.58958 11.0792 4.7027C10.0866 4.00286 9.07205 3.31583 8.03963 2.6416C6.76589 1.80948 5.32533 1.82442 4.05684 2.66436C3.49447 3.03704 2.96252 3.43176 2.3907 3.79661C1.19565 4.55761 0.828432 5.49926 0.993157 6.57319C1.139 7.5255 1.55973 8.4259 2.14938 9.28575C4.88466 13.2728 9.16963 16.2435 14.9854 18.1916C16.6389 18.7449 18.3659 19.1432 20.2136 19.1865C21.3782 19.1837 22.4127 18.9647 23.2479 18.4227C23.9792 17.9476 24.6937 17.459 25.3715 16.9491C26.4375 16.1475 26.4364 15.2194 25.3431 14.4356ZM24.0956 16.3723C23.549 16.7556 22.9845 17.1276 22.4484 17.5166C21.8063 17.9825 21.0215 18.1795 20.2912 18.1496C18.603 18.097 17.2223 17.7712 15.8971 17.336C10.0016 15.3965 5.72613 12.4058 3.21118 8.28934C2.75582 7.54328 2.45051 6.76593 2.50401 5.94305C2.53549 5.47579 2.73274 5.05688 3.21852 4.71834C3.88897 4.25179 4.55941 3.78381 5.25608 3.33503C5.82056 2.97161 6.3651 2.97658 6.91698 3.34357C7.97668 4.0498 9.02693 4.76315 10.0635 5.48432C10.6448 5.88829 10.6427 6.219 10.0656 6.62653C9.49593 7.02765 8.90417 7.41455 8.31452 7.80216C7.65457 8.23458 7.54755 8.48422 7.96094 9.02829C9.78656 11.4301 12.5197 13.2202 16.0388 14.4669C16.5613 14.6519 17.0082 14.5814 17.4657 14.2778C18.0795 13.8724 18.6765 13.4563 19.2871 13.0488C19.9932 12.5772 20.4654 12.5772 21.1631 13.0474C22.142 13.7074 23.1209 14.3681 24.0914 15.0338C24.8154 15.5309 24.8133 15.8687 24.0956 16.3723Z" fill="#B80000"/>
<path d="M27.2128 9.5849C26.7218 9.66314 26.3451 9.47893 26.2318 9.07425C25.8918 7.86306 25.2382 6.73863 24.1942 5.72728C22.163 3.76007 19.4193 2.51758 15.9338 2.04462C15.5813 1.99697 15.2476 1.93794 15.1028 1.67906C14.914 1.33981 15.2655 0.989184 15.8425 0.978516C16.9946 1.10938 18.1571 1.31776 19.2525 1.66199C23.8511 3.10931 26.7039 5.50467 27.7227 8.88436C27.836 9.2613 27.6493 9.51592 27.2128 9.5849Z" fill="#B80000"/>
<path d="M25.3431 14.4356C24.2635 13.6611 23.1503 12.9065 22.0109 12.1719C20.9302 11.4749 19.6071 11.4791 18.4876 12.1591C17.8896 12.5225 17.3293 12.9151 16.7659 13.3041C16.5928 13.4243 16.4574 13.4506 16.2287 13.3638C13.357 12.27 11.1316 10.7416 9.48439 8.81351C9.32596 8.62859 9.3952 8.53187 9.604 8.40029C10.116 8.0774 10.6165 7.74527 11.0918 7.3989C12.333 6.49282 12.3351 5.58958 11.0792 4.7027C10.0866 4.00286 9.07205 3.31583 8.03963 2.6416C6.76589 1.80948 5.32533 1.82442 4.05684 2.66436C3.49447 3.03704 2.96252 3.43176 2.3907 3.79661C1.19565 4.55761 0.828432 5.49926 0.993157 6.57319C1.139 7.5255 1.55973 8.4259 2.14938 9.28575C4.88466 13.2728 9.16963 16.2435 14.9854 18.1916C16.6389 18.7449 18.3659 19.1432 20.2136 19.1865C21.3782 19.1837 22.4127 18.9647 23.2479 18.4227C23.9792 17.9476 24.6937 17.459 25.3715 16.9491C26.4375 16.1475 26.4364 15.2194 25.3431 14.4356ZM24.0956 16.3723C23.549 16.7556 22.9845 17.1276 22.4484 17.5166C21.8063 17.9825 21.0215 18.1795 20.2912 18.1496C18.603 18.097 17.2223 17.7712 15.8971 17.336C10.0016 15.3965 5.72613 12.4058 3.21118 8.28934C2.75582 7.54328 2.45051 6.76593 2.50401 5.94305C2.53549 5.47579 2.73274 5.05688 3.21852 4.71834C3.88897 4.25179 4.55941 3.78381 5.25608 3.33503C5.82056 2.97161 6.3651 2.97658 6.91698 3.34357C7.97668 4.0498 9.02693 4.76315 10.0635 5.48432C10.6448 5.88829 10.6427 6.219 10.0656 6.62653C9.49593 7.02765 8.90417 7.41455 8.31452 7.80216C7.65457 8.23458 7.54755 8.48422 7.96094 9.02829C9.78656 11.4301 12.5197 13.2202 16.0388 14.4669C16.5613 14.6519 17.0082 14.5814 17.4657 14.2778C18.0795 13.8724 18.6765 13.4563 19.2871 13.0488C19.9932 12.5772 20.4654 12.5772 21.1631 13.0474C22.142 13.7074 23.1209 14.3681 24.0914 15.0338C24.8154 15.5309 24.8133 15.8687 24.0956 16.3723Z" fill="#B80000"/>
<path d="M27.2128 9.5849C26.7218 9.66314 26.3451 9.47893 26.2318 9.07425C25.8918 7.86306 25.2382 6.73863 24.1942 5.72728C22.163 3.76007 19.4193 2.51758 15.9338 2.04462C15.5813 1.99697 15.2476 1.93794 15.1028 1.67906C14.914 1.33981 15.2655 0.989184 15.8425 0.978516C16.9946 1.10938 18.1571 1.31776 19.2525 1.66199C23.8511 3.10931 26.7039 5.50467 27.7227 8.88436C27.836 9.2613 27.6493 9.51592 27.2128 9.5849Z" fill="#B80000"/>
<path d="M22.2915 9.75024C21.8434 9.80429 21.5224 9.63217 21.3807 9.26377C21.3629 9.21754 21.3388 9.17273 21.3241 9.1265C20.9506 7.94376 20.0336 6.99286 18.6329 6.2532C17.7075 5.76389 16.6572 5.46518 15.5073 5.31369C15.033 5.2511 14.777 5.01498 14.8316 4.73903C14.8883 4.45454 15.246 4.26821 15.7402 4.29239C17.8239 4.5406 19.5866 5.22977 20.981 6.34708C21.9589 7.13013 22.5894 8.03052 22.8675 9.03973C22.9776 9.43801 22.7573 9.69405 22.2915 9.75024Z" fill="#B80000"/>
</svg>
